<?xml version="1.0" encoding="UTF-8" standalone="no"?>
<svg
   xmlns:dc="http://purl.org/dc/elements/1.1/"
   xmlns:cc="http://web.resource.org/cc/"
   xmlns:rdf="http://www.w3.org/1999/02/22-rdf-syntax-ns#"
   xmlns:svg="http://www.w3.org/2000/svg"
   xmlns="http://www.w3.org/2000/svg"
   xmlns:sodipodi="http://inkscape.sourceforge.net/DTD/sodipodi-0.dtd"
   xmlns:inkscape="http://www.inkscape.org/namespaces/inkscape"
   width="1205.74"
   height="2325.38"
   id="svg1307"
   sodipodi:version="0.32"
   inkscape:version="0.43"
   sodipodi:docname="guitar.svg"
   sodipodi:docbase="/home/kurumin">
  <metadata
     id="metadata1354">
    <rdf:RDF>
      <cc:Work
         rdf:about="">
        <dc:format>image/svg+xml</dc:format>
        <dc:type
           rdf:resource="http://purl.org/dc/dcmitype/StillImage" />
      </cc:Work>
    </rdf:RDF>
  </metadata>
  <sodipodi:namedview
     inkscape:cy="1588.9275"
     inkscape:cx="574.52745"
     inkscape:zoom="0.13092886"
     inkscape:window-height="539"
     inkscape:window-width="749"
     inkscape:pageshadow="2"
     inkscape:pageopacity="0.0"
     borderopacity="1.0"
     bordercolor="#666666"
     pagecolor="#ffffff"
     id="base"
     inkscape:window-x="0"
     inkscape:window-y="30"
     inkscape:current-layer="svg1307" />
  <defs
     id="defs1309">
    <marker
       id="ArrowEnd"
       viewBox="0 0 10 10"
       refX="0"
       refY="5"
       markerUnits="strokeWidth"
       markerWidth="4"
       markerHeight="3"
       orient="auto">
      <path
         d="M 0 0 L 10 5 L 0 10 z"
         id="path1312" />
    </marker>
    <marker
       id="ArrowStart"
       viewBox="0 0 10 10"
       refX="10"
       refY="5"
       markerUnits="strokeWidth"
       markerWidth="4"
       markerHeight="3"
       orient="auto">
      <path
         d="M 10 0 L 0 5 L 10 10 z"
         id="path1315" />
    </marker>
  </defs>
  <path
     id="path1319"
     d="M 0,2325.38 L 0,2325.38 L 0,2325.38 L 0,2325.38"
     style="fill:#000000;stroke:none" />
  <path
     style="fill:#000000;stroke:none"
     d="M 743.40718,26.930974 C 709.12621,28.078582 676.68239,34.72706 649.32364,56.601424 C 609.82972,113.33776 601.90884,195.54238 572.08672,261.01061 C 545.84585,319.21398 512.20554,380.05886 581.34563,420.14915 C 594.64335,457.49874 610.89965,490.5494 600.12973,530.43058 C 593.09684,803.76227 589.30213,1077.1706 582.51521,1350.511 C 545.60827,1406.538 465.2412,1376.2489 451.74368,1315.9993 C 435.78155,1279.9295 445.52521,1228.8231 420.8932,1198.511 C 349.51846,1219.7357 333.04625,1302.3066 340.0092,1367.561 C 344.56131,1455.9954 388.21434,1537.1969 392.85612,1624.879 C 373.05459,1765.6146 273.50843,1890.6959 289.82366,2037.7602 C 311.45686,2162.9059 452.52755,2216.1778 565.35474,2220.8292 C 640.54,2241.3001 708.92369,2224.426 790.3754,2219.3514 C 895.4964,2212.9058 991.4357,2125.6856 989.9629,2016.9597 C 999.8767,1894.1027 907.3632,1795.7713 890.561,1678.776 C 891.3588,1594.7313 960.3202,1523.8367 942.5942,1436.7396 C 956.17,1372.1721 862.5101,1314.261 853.7322,1403.561 C 857.0394,1496.6698 688.84184,1522.5786 693.4192,1419.301 C 692.97209,1115.5368 686.25035,811.44573 687.25847,507.89566 C 701.94238,398.63076 716.62629,289.36587 731.3102,180.10097 C 748.03767,159.11185 783.49952,145.91614 787.9455,119.81799 C 788.9807,90.416968 786.8215,62.373697 760.05446,44.789766 C 754.50536,38.836836 748.95627,32.883905 743.40718,26.930974 z "
     id="path1321" />
  <path
     style="fill:#ffffff;stroke:none"
     d="M 891.9122,1393.951 C 912.1825,1402.5497 912.89,1429.7757 914.1138,1448.9611 C 917.0666,1513.4127 881.5813,1569.9808 865.8089,1630.5674 C 855.6303,1657.3978 860.7552,1686.137 872.8906,1709.7185 C 865.768,1744.8751 890.2829,1774.9162 901.9998,1806.2495 C 924.7782,1860.637 951.4969,1915.3429 957.7026,1974.6849 C 965.0006,2007.6001 923.9813,2024.5457 902.1786,2001.1168 C 865.7335,1976.0419 835.7718,1939.3248 791.3093,1927.7001 C 764.08936,1914.2875 725.36892,1925.7281 733.98566,1961.6318 C 734.68658,1991.2575 696.61953,1976.0666 678.51895,1980.7356 C 639.26307,1980.8129 599.64896,1982.7738 560.6522,1977.911 C 547.18844,1965.8282 554.18032,1945.0905 552.49122,1928.752 C 539.30625,1919.6782 519.95529,1915.6396 506.59768,1904.9855 C 470.37462,1878.3352 465.90467,1827.2724 472.67832,1786.1047 C 485.13925,1718.9712 523.84512,1658.8193 528.21834,1589.7498 C 533.69824,1543.0761 521.92522,1497.0533 518.6062,1450.8219 C 521.18643,1419.4066 567.14227,1437.1154 580.7642,1451.511 C 584.74852,1469.3297 574.92648,1504.0363 599.81022,1508.5545 C 633.42882,1514.4947 668.15648,1512.8436 701.2798,1505.1883 C 732.18814,1507.4315 761.44776,1527.6577 793.2457,1518.0274 C 828.1956,1511.7756 857.3311,1486.4964 869.2401,1453.2068 C 878.1789,1434.1657 878.4916,1410.4036 891.9122,1393.951"
     id="path1323" />
  <path
     id="path1329"
     d="M 680.6212,572.99097 L 680.6212,578.93097 C 680.6212,594.21097 668.3182,606.51097 653.0372,606.51097 L 632.9862,606.51097 C 617.7042,606.51097 605.4022,594.21097 605.4022,578.93097 L 605.4022,572.99097 C 605.4022,557.71097 617.7042,545.41097 632.9862,545.41097 L 653.0372,545.41097 C 668.3182,545.41097 680.6212,557.71097 680.6212,572.99097"
     style="fill:#00ff00;stroke:none" />
  <path
     id="path1331"
     d="M 680.6212,572.99097 L 680.6212,578.93097 C 680.6212,594.21097 668.3182,606.51097 653.0372,606.51097 L 632.9862,606.51097 C 617.7042,606.51097 605.4022,594.21097 605.4022,578.93097 L 605.4022,572.99097 C 605.4022,557.71097 617.7042,545.41097 632.9862,545.41097 L 653.0372,545.41097 C 668.3182,545.41097 680.6212,557.71097 680.6212,572.99097 z "
     style="fill:none;stroke:#000000;stroke-width:0.42321399" />
  <path
     id="path1333"
     d="M 680.6212,640.26097 L 680.6212,646.20097 C 680.6212,661.48097 668.3182,673.78097 653.0372,673.78097 L 632.9862,673.78097 C 617.7042,673.78097 605.4022,661.48097 605.4022,646.20097 L 605.4022,640.26097 C 605.4022,624.98097 617.7042,612.68097 632.9862,612.68097 L 653.0372,612.68097 C 668.3182,612.68097 680.6212,624.98097 680.6212,640.26097"
     style="fill:#ff0006;stroke:none" />
  <path
     id="path1335"
     d="M 680.6212,640.26097 L 680.6212,646.20097 C 680.6212,661.48097 668.3182,673.78097 653.0372,673.78097 L 632.9862,673.78097 C 617.7042,673.78097 605.4022,661.48097 605.4022,646.20097 L 605.4022,640.26097 C 605.4022,624.98097 617.7042,612.68097 632.9862,612.68097 L 653.0372,612.68097 C 668.3182,612.68097 680.6212,624.98097 680.6212,640.26097 z "
     style="fill:none;stroke:#000000;stroke-width:0.42321399" />
  <path
     id="path1337"
     d="M 678.9392,709.22097 L 678.9392,715.16097 C 678.9392,730.44097 666.6372,742.74097 651.3552,742.74097 L 631.3052,742.74097 C 616.0232,742.74097 603.7212,730.44097 603.7212,715.16097 L 603.7212,709.22097 C 603.7212,693.94097 616.0232,681.64097 631.3052,681.64097 L 651.3552,681.64097 C 666.6372,681.64097 678.9392,693.94097 678.9392,709.22097"
     style="fill:#ffff09;stroke:none" />
  <path
     id="path1339"
     d="M 678.9392,709.22097 L 678.9392,715.16097 C 678.9392,730.44097 666.6372,742.74097 651.3552,742.74097 L 631.3052,742.74097 C 616.0232,742.74097 603.7212,730.44097 603.7212,715.16097 L 603.7212,709.22097 C 603.7212,693.94097 616.0232,681.64097 631.3052,681.64097 L 651.3552,681.64097 C 666.6372,681.64097 678.9392,693.94097 678.9392,709.22097 z "
     style="fill:none;stroke:#000000;stroke-width:0.42321399" />
  <path
     id="path1341"
     d="M 678.9392,779.85097 L 678.9392,785.79097 C 678.9392,801.07097 666.6372,813.37097 651.3552,813.37097 L 631.3052,813.37097 C 616.0232,813.37097 603.7212,801.07097 603.7212,785.79097 L 603.7212,779.85097 C 603.7212,764.57097 616.0232,752.27097 631.3052,752.27097 L 651.3552,752.27097 C 666.6372,752.27097 678.9392,764.57097 678.9392,779.85097"
     style="fill:#0004ff;stroke:none" />
  <path
     id="path1343"
     d="M 678.9392,779.85097 L 678.9392,785.79097 C 678.9392,801.07097 666.6372,813.37097 651.3552,813.37097 L 631.3052,813.37097 C 616.0232,813.37097 603.7212,801.07097 603.7212,785.79097 L 603.7212,779.85097 C 603.7212,764.57097 616.0232,752.27097 631.3052,752.27097 L 651.3552,752.27097 C 666.6372,752.27097 678.9392,764.57097 678.9392,779.85097 z "
     style="fill:none;stroke:#000000;stroke-width:0.42321399" />
  <path
     id="path1345"
     d="M 678.9392,847.12097 L 678.9392,853.06097 C 678.9392,868.34097 666.6372,880.64097 651.3552,880.64097 L 631.3052,880.64097 C 616.0232,880.64097 603.7212,868.34097 603.7212,853.06097 L 603.7212,847.12097 C 603.7212,831.84097 616.0232,819.54097 631.3052,819.54097 L 651.3552,819.54097 C 666.6372,819.54097 678.9392,831.84097 678.9392,847.12097"
     style="fill:#ff9418;stroke:none" />
  <path
     id="path1347"
     d="M 678.9392,847.12097 L 678.9392,853.06097 C 678.9392,868.34097 666.6372,880.64097 651.3552,880.64097 L 631.3052,880.64097 C 616.0232,880.64097 603.7212,868.34097 603.7212,853.06097 L 603.7212,847.12097 C 603.7212,831.84097 616.0232,819.54097 631.3052,819.54097 L 651.3552,819.54097 C 666.6372,819.54097 678.9392,831.84097 678.9392,847.12097 z "
     style="fill:none;stroke:#000000;stroke-width:0.42321399" />
  <path
     id="path1349"
     d="M 676.8772,1730.327 L 676.8772,1881.375 C 676.8772,1896.656 664.5772,1908.959 649.2972,1908.959 L 647.3172,1908.959 C 632.0372,1908.959 619.7372,1896.656 619.7372,1881.375 L 619.7372,1730.327 C 619.7372,1715.045 632.0372,1702.743 647.3172,1702.743 L 649.2972,1702.743 C 664.5772,1702.743 676.8772,1715.045 676.8772,1730.327"
     style="fill:#939393;stroke:none" />
</svg>
